<svg width="40" height="40" viewBox="0 0 40 40" xmlns="http://www.w3.org/2000/svg">
<g>
<path d="M35.3125 18.2812H21.7188V4.6875C21.7188 4.51484 21.5789 4.375 21.4062 4.375H18.5938C18.4211 4.375 18.2812 4.51484 18.2812 4.6875V18.2812H4.6875C4.51484 18.2812 4.375 18.4211 4.375 18.5938V21.4062C4.375 21.5789 4.51484 21.7188 4.6875 21.7188H18.2812V35.3125C18.2812 35.4852 18.4211 35.625 18.5938 35.625H21.4062C21.5789 35.625 21.7188 35.4852 21.7188 35.3125V21.7188H35.3125C35.4852 21.7188 35.625 21.5789 35.625 21.4062V18.5938C35.625 18.4211 35.4852 18.2812 35.3125 18.2812Z" fill='currentColor'/>
</g>
</svg>
