<svg width="40" height="40" viewBox="0 0 40 40" fill="none" xmlns="http://www.w3.org/2000/svg">
<path d="M27.454 20.8596L15.3251 33.6756C15.2112 33.796 15.0541 33.8662 14.8884 33.8709C14.7227 33.8752 14.5619 33.8138 14.4415 33.6998L12.399 31.767C12.2786 31.653 12.2084 31.4959 12.2038 31.3302C12.1993 31.1645 12.2608 31.0038 12.3747 30.8834L22.6736 20.0002L12.3747 9.11699C12.2608 8.99662 12.1993 8.83589 12.2038 8.67018C12.2084 8.50447 12.2786 8.34736 12.399 8.2334L14.4415 6.30059C14.5619 6.18662 14.7226 6.12515 14.8884 6.12945C15.0541 6.13423 15.2112 6.20442 15.3251 6.32481L27.454 19.1408C27.9104 19.6229 27.9104 20.3775 27.454 20.8596Z" fill="#24262B" fill-opacity="0.72"/>
</svg>
