<svg width="48" height="48" viewBox="0 0 48 48" fill="none" xmlns="http://www.w3.org/2000/svg">
<path d="M15.0554 22.969L29.6101 7.58978C29.7469 7.44531 29.9354 7.36109 30.1343 7.35536C30.3331 7.35019 30.526 7.42396 30.6704 7.56072L33.1215 9.8801C33.266 10.0168 33.3502 10.2054 33.3557 10.4042C33.3611 10.6031 33.2874 10.796 33.1506 10.9404L20.792 24.0003L33.1506 37.0601C33.2874 37.2046 33.3611 37.3974 33.3557 37.5963C33.3502 37.7951 33.266 37.9837 33.1215 38.1204L30.6704 40.4398C30.526 40.5765 30.3331 40.6503 30.1343 40.6451C29.9354 40.6394 29.7469 40.5552 29.6101 40.4107L15.0554 25.0315C14.5078 24.4531 14.5078 23.5474 15.0554 22.969Z" fill="black" fill-opacity="0.9"/>
</svg>
