<svg width="40" height="40" viewBox="0 0 40 40" fill="none" xmlns="http://www.w3.org/2000/svg">
<path d="M12.5455 19.1404L24.6744 6.32441C24.7883 6.20402 24.9454 6.13383 25.1112 6.12906C25.2769 6.12475 25.4376 6.18623 25.558 6.30019L27.6005 8.23301C27.7209 8.34696 27.7911 8.50408 27.7957 8.66979C27.8002 8.83549 27.7387 8.99622 27.6248 9.1166L17.3259 19.9998L27.6248 30.883C27.7387 31.0034 27.8002 31.1641 27.7957 31.3298C27.7911 31.4955 27.7209 31.6526 27.6005 31.7666L25.558 33.6994C25.4376 33.8134 25.2769 33.8749 25.1112 33.8705C24.9454 33.8658 24.7883 33.7956 24.6744 33.6752L12.5455 20.8592C12.0891 20.3771 12.0891 19.6225 12.5455 19.1404Z" fill="#24262B" fill-opacity="0.72"/>
</svg>
