<svg width="48" height="48" viewBox="0 0 48 48" fill="none" xmlns="http://www.w3.org/2000/svg">
<path d="M41.5609 8.56078L39.4393 6.43922C39.369 6.36894 39.2737 6.32947 39.1743 6.32947C39.0748 6.32947 38.9795 6.36894 38.9092 6.43922L24.0001 21.3483L9.09106 6.43922C9.02074 6.36894 8.92539 6.32947 8.82598 6.32947C8.72656 6.32947 8.63122 6.36894 8.5609 6.43922L6.43934 8.56078C6.36906 8.6311 6.32959 8.72644 6.32959 8.82586C6.32959 8.92527 6.36906 9.02062 6.43934 9.09093L21.3484 24L6.43934 38.909C6.36906 38.9794 6.32959 39.0747 6.32959 39.1741C6.32959 39.2735 6.36906 39.3689 6.43934 39.4392L8.5609 41.5608C8.63122 41.631 8.72656 41.6705 8.82598 41.6705C8.92539 41.6705 9.02074 41.631 9.09106 41.5608L24.0001 26.6517L38.9092 41.5608C38.9795 41.631 39.0748 41.6705 39.1743 41.6705C39.2737 41.6705 39.369 41.631 39.4393 41.5608L41.5609 39.4392C41.6312 39.3689 41.6706 39.2735 41.6706 39.1741C41.6706 39.0747 41.6312 38.9794 41.5609 38.909L26.6518 24L41.5609 9.09093C41.6312 9.02062 41.6706 8.92527 41.6706 8.82586C41.6706 8.72644 41.6312 8.6311 41.5609 8.56078Z" fill="black" fill-opacity="0.9"/>
</svg>
