<svg width="64" height="64" viewBox="0 0 64 64" fill="none" xmlns="http://www.w3.org/2000/svg">
<path d="M54.6669 12.8738H9.33313C7.21938 12.8738 5.5 14.5932 5.5 16.7069V47.2932C5.5 49.4069 7.21938 51.1263 9.33313 51.1263H54.6669C56.7806 51.1263 58.5 49.4069 58.5 47.2932V16.7069C58.5 14.5932 56.7806 12.8738 54.6669 12.8738ZM9.33313 15.8738H54.6669C55.1262 15.8738 55.5 16.2475 55.5 16.7069V19.7769H8.5V16.7069C8.5 16.2475 8.87375 15.8738 9.33313 15.8738ZM51.0725 48.1263H12.9275V43.7832H51.0731V48.1263H51.0725ZM54.6669 48.1263H53.5725V41.2838H10.4275V48.1269H9.33313C8.87375 48.1269 8.5 47.7532 8.5 47.2938V22.2769H55.5V47.2932C55.5 47.7525 55.1262 48.1263 54.6669 48.1263Z" fill="black" fill-opacity="0.9"/>
<path d="M54.0018 24.4863H50.8981V27.59H54.0018V24.4863Z" fill="black" fill-opacity="0.9"/>
<path d="M48.5912 24.4863H39.1931V27.59H48.5912V24.4863Z" fill="black" fill-opacity="0.9"/>
</svg>
