<svg width="40" height="40" viewBox="0 0 40 40" fill="none" xmlns="http://www.w3.org/2000/svg">
<path d="M32.832 27.5V32.832H7.20703V27.5C7.20703 27.4171 7.17411 27.3376 7.1155 27.279C7.0569 27.2204 6.97741 27.1875 6.89453 27.1875H4.70703C4.62415 27.1875 4.54467 27.2204 4.48606 27.279C4.42746 27.3376 4.39453 27.4171 4.39453 27.5V34.3945C4.39453 34.7261 4.52623 35.044 4.76065 35.2784C4.99507 35.5128 5.31301 35.6445 5.64453 35.6445H34.3945C34.7261 35.6445 35.044 35.5128 35.2784 35.2784C35.5128 35.044 35.6445 34.7261 35.6445 34.3945V27.5C35.6445 27.4171 35.6116 27.3376 35.553 27.279C35.4944 27.2204 35.4149 27.1875 35.332 27.1875H33.1445C33.0617 27.1875 32.9822 27.2204 32.9236 27.279C32.865 27.3376 32.832 27.4171 32.832 27.5Z" fill="#555555"/>
<path d="M21.0937 4.375H18.9062C18.8233 4.375 18.7438 4.40792 18.6852 4.46653C18.6266 4.52513 18.5937 4.60462 18.5937 4.6875V22.2516H15.4773C15.419 22.2516 15.3618 22.268 15.3123 22.2988C15.2629 22.3296 15.223 22.3737 15.1972 22.426C15.1714 22.4783 15.1608 22.5367 15.1666 22.5948C15.1723 22.6528 15.1941 22.708 15.2296 22.7543L19.7519 28.6473C19.7811 28.6853 19.8186 28.716 19.8616 28.7372C19.9045 28.7584 19.9518 28.7694 19.9997 28.7694C20.0476 28.7694 20.0949 28.7584 20.1379 28.7372C20.1809 28.716 20.2184 28.6853 20.2476 28.6473L24.7702 22.7543C24.8057 22.708 24.8276 22.6528 24.8333 22.5948C24.839 22.5367 24.8284 22.4783 24.8026 22.426C24.7769 22.3737 24.737 22.3296 24.6875 22.2988C24.638 22.268 24.5809 22.2516 24.5226 22.2516H21.4062V4.6875C21.4062 4.60462 21.3733 4.52513 21.3146 4.46653C21.256 4.40792 21.1766 4.375 21.0937 4.375Z" fill="#555555"/>
</svg>
