<svg width="14" height="14" viewBox="0 0 14 14" fill="none" xmlns="http://www.w3.org/2000/svg">
<g clip-path="url(#clip0_8_381)">
<path d="M11.6048 11.0137C12.5754 9.9027 13.1057 8.49508 13.1057 7.00585C13.1057 5.37609 12.471 3.84385 11.3186 2.69143C10.1839 1.55671 8.68083 0.924437 7.07914 0.905256C7.05283 0.897058 6.93846 0.897156 6.91197 0.905466C5.3167 0.928942 3.82039 1.56077 2.68973 2.69143C1.55672 3.82445 0.924632 5.32465 0.903646 6.92365C0.897784 6.94621 0.897673 7.04126 0.903353 7.06348C0.918155 8.67167 1.55092 10.1815 2.68973 11.3203C3.84216 12.4727 5.37438 13.1074 7.00415 13.1074C8.63391 13.1074 10.1662 12.4727 11.3186 11.3203C11.4025 11.2363 11.4834 11.1501 11.5618 11.0623C11.5687 11.0561 11.5755 11.0496 11.5819 11.0426C11.5903 11.0334 11.5978 11.0236 11.6048 11.0137ZM1.469 7.27403H4.0325C4.05058 8.17199 4.15902 9.01398 4.34019 9.76385C3.49677 9.992 2.96181 10.2885 2.68485 10.4735C1.97298 9.58858 1.52683 8.48144 1.469 7.27403ZM2.67806 3.5466C2.95274 3.73194 3.48802 4.03142 4.33702 4.26109C4.15931 5.00112 4.05227 5.83032 4.0329 6.71427H1.47008C1.5323 5.51976 1.97473 4.42439 2.67806 3.5466ZM12.5382 6.71426H9.97539C9.95604 5.83063 9.84906 5.00171 9.67147 4.26187C10.5185 4.03365 11.0556 3.73627 11.3335 3.55065C12.0349 4.42777 12.4761 5.52161 12.5382 6.71426ZM9.41552 6.71426H7.27572V4.58091C7.98952 4.56594 8.60331 4.49268 9.12516 4.38905C9.29688 5.10185 9.39649 5.89117 9.41552 6.71426ZM7.27572 4.02111V1.50279C7.77941 1.64496 8.27076 2.17553 8.65558 3.00691C8.77604 3.26716 8.88315 3.54889 8.97638 3.84802C8.4975 3.94061 7.93326 4.00672 7.27572 4.02111ZM6.71595 1.50765V4.02061C6.06647 4.0052 5.50765 3.93855 5.03267 3.84557C5.12573 3.54735 5.23259 3.26644 5.35271 3.00688C5.73333 2.18466 6.2181 1.6567 6.71595 1.50765ZM6.71595 4.58063V6.71426H4.59278C4.6118 5.89103 4.71145 5.10158 4.88322 4.38868C5.40051 4.49171 6.00862 4.56487 6.71595 4.58063ZM4.59229 7.27403H6.71595V9.44332C6.01035 9.45965 5.40318 9.53305 4.88635 9.63614C4.71101 8.91308 4.61007 8.11075 4.59229 7.27403ZM6.71595 10.0033V12.5041C6.21808 12.355 5.73333 11.827 5.35273 11.0048C5.23406 10.7484 5.12838 10.4711 5.03612 10.177C5.50972 10.085 6.06721 10.019 6.71595 10.0033ZM7.27572 12.5089V10.0025C7.93066 10.0165 8.49393 10.0826 8.97263 10.1755C8.88027 10.4702 8.77443 10.748 8.65558 11.0048C8.27076 11.8362 7.77941 12.3667 7.27572 12.5089ZM7.27572 9.44262V7.27403H9.41601C9.39825 8.10934 9.29761 8.91035 9.12281 9.63247C8.60172 9.52949 7.98874 9.45699 7.27572 9.44262ZM9.97581 7.27403H12.5393C12.4816 8.47905 12.0371 9.58422 11.3277 10.4683C11.0478 10.2814 10.5124 9.98566 9.66925 9.75913C9.84973 9.01044 9.95776 8.17011 9.97581 7.27403ZM10.9583 3.12734C10.7077 3.28553 10.2431 3.52869 9.52466 3.72198C9.26085 2.85989 8.89424 2.14966 8.4574 1.65785C9.41992 1.91968 10.279 2.43492 10.9583 3.12734ZM5.55089 1.65785C5.11468 2.14894 4.74848 2.85781 4.48477 3.71823C3.76832 3.52352 3.30393 3.27938 3.05494 3.12231C3.73347 2.43242 4.59071 1.91905 5.55089 1.65785ZM3.06138 10.896C3.31136 10.7383 3.77366 10.4963 4.48779 10.3035C4.75128 11.1594 5.11637 11.8646 5.55089 12.3538C4.59374 12.0935 3.73888 11.5826 3.06138 10.896ZM8.4574 12.3538C8.89219 11.8643 9.25745 11.1586 9.52098 10.3019C10.2317 10.4937 10.6964 10.7344 10.9502 10.8927C10.2721 11.5809 9.41608 12.0931 8.4574 12.3538Z" fill="white"/>
</g>
<defs>
<clipPath id="clip0_8_381">
<rect width="14" height="14" fill="white"/>
</clipPath>
</defs>
</svg>
