<svg width="64" height="64" viewBox="0 0 64 64" fill="none" xmlns="http://www.w3.org/2000/svg">
<path fill-rule="evenodd" clip-rule="evenodd" d="M57.725 8.5H6.275C4.19375 8.5 2.5 10.1931 2.5 12.275V32.3887C2.5 34.47 4.19313 36.1637 6.275 36.1637H57.725C59.8062 36.1637 61.5 34.4706 61.5 32.3887V12.275C61.5 10.1931 59.8069 8.5 57.725 8.5ZM6.275 11.5H57.725C58.1525 11.5 58.5 11.8475 58.5 12.275V27.9819H5.5V12.275C5.5 11.8475 5.8475 11.5 6.275 11.5ZM57.725 33.1637H6.275C5.8475 33.1637 5.5 32.8162 5.5 32.3887V30.4819H58.5V32.3887C58.5 32.8162 58.1525 33.1637 57.725 33.1637ZM55.16 14.0412H52.0563V17.145H55.16V14.0412ZM40.3506 14.0412H49.7488V17.145H40.3506V14.0412ZM18.0037 40.185H15.5037C15.5037 41.2658 15.2108 41.7415 14.8055 42.3999L14.805 42.4006C14.3281 43.1744 13.735 44.1375 13.735 45.9275C13.735 47.7169 14.3281 48.6806 14.805 49.4544C15.2106 50.1125 15.5037 50.5881 15.5037 51.67C15.5037 52.7512 15.2106 53.2275 14.805 53.8856C14.3281 54.6594 13.735 55.6225 13.735 57.4125H16.235C16.235 56.3312 16.5281 55.855 16.9337 55.1969C17.4106 54.4231 18.0037 53.46 18.0037 51.67C18.0037 49.8806 17.4106 48.9169 16.9337 48.1431C16.5281 47.485 16.235 47.0094 16.235 45.9275C16.235 44.8467 16.5279 44.371 16.9333 43.7126L16.9337 43.7119C17.4106 42.9381 18.0037 41.975 18.0037 40.185ZM23.035 40.185H25.535C25.535 41.975 24.9419 42.9381 24.465 43.7119L24.4645 43.7126C24.0591 44.371 23.7662 44.8467 23.7662 45.9275C23.7662 47.0094 24.0594 47.485 24.465 48.1431C24.9419 48.9169 25.535 49.8806 25.535 51.67C25.535 53.46 24.9419 54.4231 24.465 55.1969C24.0594 55.855 23.7662 56.3312 23.7662 57.4125H21.2662C21.2662 55.6225 21.8594 54.6594 22.3362 53.8856C22.7419 53.2275 23.035 52.7512 23.035 51.67C23.035 50.5881 22.7419 50.1125 22.3362 49.4544C21.8594 48.6806 21.2662 47.7175 21.2662 45.9275C21.2662 44.1375 21.8594 43.1744 22.3362 42.4006L22.3367 42.3999C22.7421 41.7415 23.035 41.2658 23.035 40.185ZM33.0656 40.185H30.5656C30.5656 41.2658 30.2727 41.7415 29.8673 42.3999L29.8669 42.4006C29.39 43.1744 28.7969 44.1375 28.7969 45.9275C28.7969 47.7175 29.39 48.6806 29.8669 49.4544C30.2725 50.1125 30.5656 50.5881 30.5656 51.67C30.5656 52.7512 30.2725 53.2275 29.8669 53.8856C29.39 54.6594 28.7969 55.6225 28.7969 57.4125H31.2969C31.2969 56.3312 31.59 55.855 31.9956 55.1969C32.4725 54.4231 33.0656 53.46 33.0656 51.67C33.0656 49.8806 32.4725 48.9169 31.9956 48.1431C31.59 47.485 31.2969 47.0094 31.2969 45.9275C31.2969 44.8467 31.5898 44.371 31.9952 43.7126L31.9956 43.7119C32.4725 42.9381 33.0656 41.975 33.0656 40.185ZM46.2788 45.6512L49.1238 44.0088L50.3738 46.1738L47.5288 47.8162L50.3738 49.4594L49.1238 51.6244L46.2788 49.9813V53.2669H43.7788V49.9813L40.9338 51.6244L39.6838 49.4594L42.5288 47.8162L39.6838 46.1738L40.9338 44.0088L43.7788 45.6512V42.3662H46.2788V45.6512Z" fill="black" fill-opacity="0.9"/>
</svg>
