<svg width="24" height="24" viewBox="0 0 24 24" fill="none" xmlns="http://www.w3.org/2000/svg">
<path d="M11.9998 2.40002C8.0278 2.40002 4.7998 5.62802 4.7998 9.60002C4.7998 12.024 6.2038 14.052 7.8358 15.468C8.3518 15.912 9.2518 16.62 10.0558 17.664C10.9438 18.828 11.7478 20.076 11.9998 20.916C12.2518 20.076 13.0558 18.828 13.9438 17.664C14.7478 16.62 15.6478 15.912 16.1638 15.468C17.7958 14.052 19.1998 12.024 19.1998 9.60002C19.1998 5.62802 15.9718 2.40002 11.9998 2.40002ZM11.9998 5.47202C12.5419 5.47202 13.0787 5.5788 13.5795 5.78625C14.0804 5.9937 14.5354 6.29777 14.9187 6.68109C15.3021 7.06441 15.6061 7.51948 15.8136 8.02031C16.021 8.52114 16.1278 9.05793 16.1278 9.60002C16.1278 10.1421 16.021 10.6789 15.8136 11.1797C15.6061 11.6806 15.3021 12.1356 14.9187 12.519C14.5354 12.9023 14.0804 13.2063 13.5795 13.4138C13.0787 13.6213 12.5419 13.728 11.9998 13.728C10.905 13.728 9.85502 13.2931 9.08087 12.519C8.30672 11.7448 7.8718 10.6948 7.8718 9.60002C7.8718 8.50521 8.30672 7.45524 9.08087 6.68109C9.85502 5.90694 10.905 5.47202 11.9998 5.47202Z" fill="#FC0407"/>
</svg>
