<svg width="24" height="24" viewBox="0 0 24 24" fill="none" xmlns="http://www.w3.org/2000/svg">
<path d="M17.075 21.8603C17.0393 21.8603 17.0033 21.8589 16.9674 21.8565C13.1256 21.585 9.51083 19.9361 6.78749 17.2127C4.06415 14.4894 2.4152 10.8746 2.14372 7.03283C2.12829 6.81578 2.15966 6.59795 2.23572 6.39407C2.31178 6.1902 2.43074 6.00504 2.58457 5.85114L6.08658 2.34913C6.15291 2.28278 6.23166 2.23016 6.31833 2.19425C6.405 2.15834 6.4979 2.13986 6.59171 2.13986C6.68553 2.13986 6.77842 2.15834 6.86509 2.19425C6.95177 2.23016 7.03051 2.28278 7.09684 2.34913L11.1928 6.44511C11.3267 6.57906 11.402 6.76072 11.402 6.95013C11.402 7.13955 11.3267 7.32121 11.1928 7.45516L8.41649 10.2315C9.48609 12.6099 11.3901 14.514 13.7685 15.5837L16.5451 12.8074C16.679 12.6735 16.8607 12.5982 17.0501 12.5982C17.2395 12.5982 17.4212 12.6735 17.5551 12.8074L21.6513 16.9034C21.7177 16.9697 21.7703 17.0484 21.8062 17.1351C21.8421 17.2218 21.8606 17.3147 21.8606 17.4085C21.8606 17.5023 21.8421 17.5952 21.8062 17.6819C21.7703 17.7686 21.7177 17.8473 21.6513 17.9136L18.1491 21.4156C18.008 21.5567 17.8406 21.6686 17.6563 21.7449C17.472 21.8212 17.2744 21.8604 17.075 21.8603ZM3.74908 6.95873C4.00166 10.4004 5.48323 13.6365 7.92345 16.0766C10.3637 18.5166 13.5998 19.9981 17.0415 20.2505L19.8835 17.4085L17.05 14.575L14.7759 16.8494C14.5874 17.0394 14.346 17.1682 14.0832 17.2191C13.8204 17.2699 13.5484 17.2404 13.3026 17.1344C10.411 15.8935 8.1068 13.5889 6.86626 10.6971C6.76034 10.4513 6.73088 10.1793 6.78172 9.91658C6.83256 9.65381 6.96135 9.41244 7.15131 9.22391L9.42519 6.95024L6.59171 4.11676L3.74908 6.95873Z" fill="black" fill-opacity="0.55"/>
</svg>
