<svg width="64" height="64" viewBox="0 0 64 64" fill="none" xmlns="http://www.w3.org/2000/svg">
<path fill-rule="evenodd" clip-rule="evenodd" d="M57.3919 11.895L58.0612 17.6925C58.3525 20.2131 58.5 22.7775 58.5 25.3144V51.7625C58.5 53.4075 57.1619 54.7456 55.5169 54.7456H8.48312C6.83812 54.7456 5.5 53.4075 5.5 51.7625V25.3144C5.5 22.7775 5.6475 20.2131 5.93875 17.6925L6.60813 11.895C6.7825 10.39 8.05625 9.25439 9.57187 9.25439H54.4281C55.9437 9.25439 57.2181 10.3894 57.3919 11.895ZM8.5 51.7456H55.5V25.3144C55.5 22.8919 55.3594 20.4438 55.0812 18.0369L54.4131 12.2544H9.58687L8.91875 18.0369C8.64062 20.4431 8.5 22.8919 8.5 25.3144V51.7456ZM11.75 18.9675H52.25V20.9675H11.75V18.9675ZM52.25 22.4369H11.75V23.9369H52.25V22.4369ZM11.75 44.5269H52.25V46.0269H11.75V44.5269ZM52.25 41.5956H11.75V43.0956H52.25V41.5956ZM11.75 47.4963H52.25V49.4963H11.75V47.4963ZM52.25 14.2531H41.5656V17.0138H52.25V14.2531ZM26.6575 27.6006H37.3418V31.8538H26.6575V27.6006Z" fill="black" fill-opacity="0.9"/>
</svg>
