<svg width="24" height="24" viewBox="0 0 24 24" fill="none" xmlns="http://www.w3.org/2000/svg">
<path d="M18.7499 20.9556H5.2499C4.85381 20.9556 4.53506 20.6345 4.53506 20.2407V19.1345H3.56006C3.16396 19.1345 2.84521 18.8134 2.84521 18.4197V5.38372C2.84521 4.98762 3.16631 4.66887 3.56006 4.66887H4.53506V3.02356C4.53506 2.62747 4.85615 2.30872 5.2499 2.30872H18.7499C19.146 2.30872 19.4647 2.62981 19.4647 3.02356V4.66887H20.7749C21.171 4.66887 21.4897 4.98997 21.4897 5.38372V18.4173C21.4897 18.8134 21.1687 19.1322 20.7749 19.1322H19.4647V20.2384C19.4671 20.6345 19.146 20.9556 18.7499 20.9556ZM5.96475 19.5259H18.0351V18.4197C18.0351 18.0236 18.3562 17.7048 18.7499 17.7048H20.0601V6.1009H18.7499C18.3538 6.1009 18.0351 5.77981 18.0351 5.38606V3.74075H5.96475V5.38606C5.96475 5.78215 5.64365 6.1009 5.2499 6.1009H4.2749V17.7048H5.2499C5.646 17.7048 5.96475 18.0259 5.96475 18.4197V19.5259Z" fill="#345ABC"/>
<path d="M5.2501 19.2657C5.06729 19.2657 4.88447 19.1954 4.74385 19.0572C4.46494 18.7782 4.46494 18.3259 4.74385 18.0447L18.2462 4.54231C18.5251 4.2634 18.9774 4.2634 19.2587 4.54231C19.5376 4.82122 19.5376 5.27356 19.2587 5.55481L5.75635 19.0572C5.61572 19.1954 5.43291 19.2657 5.2501 19.2657Z" fill="#345ABC"/>
<path d="M5.24995 22.6782H1.70386C1.30776 22.6782 0.989014 22.3572 0.989014 21.9634V18.4173C0.989014 18.0212 1.31011 17.7025 1.70386 17.7025H5.24995C5.64605 17.7025 5.9648 18.0236 5.9648 18.4173V21.9611C5.9648 22.3595 5.6437 22.6782 5.24995 22.6782ZM2.42104 21.2486H4.53511V19.1345H2.42104V21.2486ZM10.4812 20.9345C10.2984 20.9345 10.1156 20.8642 9.97495 20.7259C9.69604 20.447 9.69604 19.9947 9.97495 19.7134L19.9921 9.69856C20.271 9.41965 20.7234 9.41965 21.0046 9.69856C21.2835 9.97746 21.2835 10.4298 21.0046 10.7111L10.9875 20.7259C10.8468 20.8642 10.664 20.9345 10.4812 20.9345ZM3.63511 13.2704C3.4523 13.2704 3.26948 13.2001 3.12886 13.0618C2.84995 12.7829 2.84995 12.3306 3.12886 12.0493L12.1218 3.05637C12.4007 2.77747 12.8531 2.77747 13.1343 3.05637C13.4132 3.33528 13.4132 3.78762 13.1343 4.06887L4.13901 13.0595C4.00073 13.2001 3.81792 13.2704 3.63511 13.2704ZM5.24995 6.1009H1.70386C1.30776 6.1009 0.989014 5.77981 0.989014 5.38606V1.83997C0.989014 1.44387 1.31011 1.12512 1.70386 1.12512H5.24995C5.64605 1.12512 5.9648 1.44622 5.9648 1.83997V5.38372C5.9648 5.77981 5.6437 6.1009 5.24995 6.1009ZM2.42104 4.66887H4.53511V2.55481H2.42104V4.66887ZM22.296 6.1009H18.75C18.3539 6.1009 18.0351 5.77981 18.0351 5.38606V1.83997C18.0351 1.44387 18.3562 1.12512 18.75 1.12512H22.2937C22.6898 1.12512 23.0085 1.44622 23.0085 1.83997V5.38372C23.0109 5.77981 22.6898 6.1009 22.296 6.1009ZM19.4671 4.66887H21.5812V2.55481H19.4671V4.66887ZM22.296 22.6782H18.75C18.3539 22.6782 18.0351 22.3572 18.0351 21.9634V18.4173C18.0351 18.0212 18.3562 17.7025 18.75 17.7025H22.2937C22.6898 17.7025 23.0085 18.0236 23.0085 18.4173V21.9611C23.0109 22.3595 22.6898 22.6782 22.296 22.6782ZM19.4671 21.2486H21.5812V19.1345H19.4671V21.2486Z" fill="#345ABC"/>
</svg>
