<svg width="16" height="16" viewBox="0 0 16 16" fill="none" xmlns="http://www.w3.org/2000/svg">
<path fill-rule="evenodd" clip-rule="evenodd" d="M10.9172 5.79688C10.7641 5.77187 10.6109 5.77187 10.4578 5.77187C8.13438 5.77187 6.32031 7.50937 6.31875 9.62969C6.31875 9.9875 6.37031 10.3188 6.47188 10.6516C6.29219 10.6766 6.13907 10.6766 5.98595 10.6766H5.98594C5.46105 10.6766 5.02911 10.5836 4.53081 10.4764C4.44763 10.4585 4.36261 10.4402 4.275 10.4219L2.56406 11.2641L3.05 9.80781C1.825 8.96406 1.10938 7.84062 1.10938 6.5125C1.10938 4.21406 3.30625 2.375 5.9875 2.375C8.38906 2.375 10.4844 3.83125 10.9172 5.79688ZM8.43906 5.05625C8.43906 4.69844 8.20938 4.44375 7.82656 4.44375C7.47031 4.44375 7.08594 4.67344 7.08594 5.05625C7.08594 5.4125 7.44375 5.66875 7.82656 5.66875C8.18438 5.66875 8.43906 5.41406 8.43906 5.05625ZM3.7 4.97969C3.7 5.33281 4.06094 5.58594 4.44688 5.58594C4.80781 5.58594 5.06563 5.33438 5.06406 4.97969C5.06406 4.62656 4.80781 4.37344 4.44688 4.37344C4.08594 4.37344 3.7 4.6 3.7 4.97969ZM10.7656 6.02813C12.9625 6.02813 14.9031 7.61094 14.9031 9.57812C14.9031 10.6766 14.1625 11.6469 13.1922 12.3875L13.55 13.6141L12.2219 12.8734L12.1999 12.8792C11.7213 13.0038 11.2442 13.1281 10.7656 13.1281C8.44062 13.1281 6.60156 11.5453 6.60156 9.57812C6.60156 7.6375 8.44062 6.02813 10.7656 6.02813ZM8.925 8.47969C8.925 8.73594 9.18125 8.96562 9.41094 8.96562C9.79375 8.96562 10.0234 8.73594 10.0234 8.47969C10.0234 8.24844 9.76875 7.99375 9.41094 7.99375C9.17969 7.99375 8.925 8.25 8.925 8.47969ZM11.7031 8.36719C11.7031 8.61875 11.9609 8.84688 12.1922 8.84688C12.5531 8.84688 12.8094 8.62031 12.8094 8.36719C12.8094 8.14062 12.5531 7.8875 12.1922 7.8875C11.9609 7.8875 11.7031 8.13906 11.7031 8.36719Z" fill="currentColor"/>
</svg>
